<svg width="60" height="30" xmlns="http://www.w3.org/2000/svg" class="pdoc-logo">

 <g>
  <title>Layer 1</title>
  <rect stroke="#000" id="svg_3" height="10.98358" width="57.86869" y="33.91798" x="1.06565" fill="#fff"/>
  <rect id="svg_4" height="7.86883" width="54.91788" y="2.93446" x="2.54106" fill="#999999"/>
  <rect id="svg_5" height="5.90162" width="7.04916" y="13.7541" x="2.9509" fill="#9ACEE6"/>
  <rect id="svg_6" height="5.90162" width="7.04916" y="12.60656" x="12.29513" fill="#9ACEE6"/>
  <rect transform="rotate(8.87122 25.9836 16.2131)" id="svg_7" height="5.90162" width="7.04916" y="13.2623" x="22.45904" fill="#9ACEE6"/>
  <rect transform="rotate(-12.9842 6.14761 23.4262)" id="svg_8" height="5.90162" width="7.04916" y="20.4754" x="2.62303" fill="#9ACEE6"/>
  <rect transform="rotate(-11.0442 16.3115 22.9344)" id="svg_9" height="5.90162" width="7.04916" y="19.98359" x="12.78694" fill="#9ACEE6"/>
  <rect transform="rotate(7.73904 25.9836 22.7705)" id="svg_10" height="5.90162" width="7.04916" y="19.81966" x="22.45904" fill="#9ACEE6"/>
  <rect transform="rotate(-19.9533 36.6393 15.8852)" id="svg_11" height="5.90162" width="7.04916" y="12.93443" x="33.11475" fill="#CBFFFF"/>
  <rect transform="rotate(16.12 38.9344 24.0819)" stroke="null" id="svg_12" height="5.90162" width="7.04916" y="21.13113" x="35.40982" fill="#BF7E96"/>
  <rect stroke="null" id="svg_13" height="13.44259" width="9.01637" y="13.09837" x="45.24586" fill="#C48157"/>
 </g>
</svg>